<svg width="31" height="43" viewBox="0 0 31 43" fill="none" xmlns="http://www.w3.org/2000/svg">
<g clip-path="url(#clip0_13_82)">
<path d="M30.9913 38.0627C30.9913 29.4788 30.9884 20.894 30.9865 12.3101C30.9865 12.0322 30.9643 11.7572 30.829 11.5058C30.6058 10.9578 30.1179 10.9362 29.6522 10.9333C27.9179 10.9205 26.1826 10.9234 24.4483 10.9333C24.1884 10.9342 24.0126 10.8989 24.0454 10.5827C24.0454 10.2468 24.0454 9.91097 24.0454 9.57512C24.0454 9.21079 24.0454 8.84744 24.0454 8.48311C24.0841 8.08637 24.0319 7.6965 23.9633 7.30762C23.9256 6.90597 23.83 6.51709 23.7169 6.13214C23.6493 5.80905 23.5459 5.49873 23.3904 5.20805C23.3073 4.90166 23.172 4.6208 22.9807 4.36842C22.8677 4.17201 22.7556 3.97659 22.6425 3.78018C21.4812 2.04396 19.9237 0.869454 17.9218 0.309699C17.5169 0.196766 17.0889 0.185964 16.7034 0.00134277H14.6377C14.3517 0.184982 14.0135 0.168287 13.7015 0.25176C11.5546 0.820353 9.87055 2.03217 8.68698 3.94811C8.42514 4.24173 8.28311 4.60508 8.12273 4.95665C8.02128 5.20314 7.87828 5.4349 7.85606 5.70986C7.72756 5.91609 7.67538 6.14981 7.62611 6.38353C7.57104 6.66243 7.51596 6.94132 7.46089 7.22022C7.4348 7.52956 7.32563 7.83104 7.3778 8.14725C7.3778 8.42713 7.37683 8.70701 7.37587 8.98689C7.37587 9.26676 7.37587 9.54664 7.37587 9.82652C7.37587 10.1624 7.37587 10.4982 7.37587 10.8341C7.24736 10.9932 7.06959 10.9254 6.91307 10.9254C5.03287 10.9303 3.15365 10.9215 1.27345 10.9333C0.808718 10.9362 0.322727 10.9598 0.100505 11.5058C-0.0492532 11.7425 0.0145149 12.0066 0.0087178 12.261V14.2761C0.0087178 14.5844 0.0087178 14.8918 0.0087178 15.2002C0.0087178 15.5085 0.0087178 15.8159 0.0087178 16.1243C0.0087178 16.4041 0.0087178 16.684 0.0087178 16.9639C0.0087178 17.2722 0.0087178 17.5796 0.0087178 17.888C0.0087178 18.2523 0.0087178 18.6157 0.0087178 18.98C0.0087178 19.2599 0.0087178 19.5397 0.0087178 19.8196C0.0087178 20.0995 0.0087178 20.3794 0.0087178 20.6593C0.0087178 20.9391 0.0087178 21.219 0.0087178 21.4989C0.0087178 21.7788 0.0087178 22.0586 0.0087178 22.3385C0.0087178 22.6184 0.0087178 22.8983 0.0087178 23.1782C0.0087178 23.514 0.0087178 23.8499 0.0087178 24.1857V25.7815C0.0087178 26.2853 0.0087178 26.7891 0.0087178 27.2928C0.0087178 27.7132 0.0087178 28.1325 0.0087178 28.5528C0.0087178 31.8809 0.00775161 35.209 0.00968398 38.5371C0.00968398 38.6755 0.0280415 38.8159 0.0550946 38.9524C0.540119 41.4075 2.44543 42.9935 4.9179 42.9964C7.82128 42.9994 10.7247 42.9964 13.628 42.9964C17.8387 42.9964 22.0493 43.0072 26.2599 42.9905C28.6793 42.9807 30.7739 40.9646 30.9285 38.5498C31.0377 38.3996 30.9942 38.2257 30.9942 38.0617L30.9913 38.0627ZM15.5256 2.05869C17.1904 2.0145 18.6831 2.55461 19.9256 3.72421C20.0493 3.84107 20.1633 3.98444 20.3478 3.98052C20.4213 4.28101 20.5952 4.49411 20.8802 4.60803C20.9208 4.94388 21.0503 5.22376 21.3807 5.37598C21.3701 5.74718 21.4735 6.07223 21.7488 6.32658C21.7662 6.69091 21.743 7.06801 22.0222 7.35083C22.0222 7.35181 22.0203 7.35279 22.0203 7.35378C21.9044 7.75542 21.9131 8.14038 22.1478 8.49587C21.9623 8.86119 21.9788 9.22847 22.143 9.59574C21.9759 9.91294 21.9739 10.2301 22.1382 10.5483H22.1343C21.9353 10.8017 21.6551 10.783 21.3797 10.783C17.5623 10.783 13.7449 10.783 9.92659 10.783C9.71983 10.783 9.51403 10.7752 9.31017 10.7418C9.46669 10.4314 9.42321 10.1162 9.27828 9.8H9.27538C9.45606 9.52307 9.42804 9.24221 9.27538 8.95841C9.4406 8.69522 9.4377 8.43106 9.27345 8.16591C9.46862 7.86639 9.53625 7.55313 9.372 7.21433C9.65316 7.0464 9.62321 6.78911 9.572 6.52593C9.80679 6.37666 9.8348 6.14883 9.76427 5.88368C9.76427 5.87779 9.76234 5.87386 9.76137 5.86797C10.0377 5.74718 10.1749 5.48694 10.1865 5.05485C10.4976 4.88693 10.857 4.42832 10.9218 4.10621C11.2126 4.00016 11.4126 3.75858 11.6367 3.56315C12.7585 2.588 14.0763 2.09502 15.5247 2.05771L15.5256 2.05869ZM28.9276 38.1717C28.7933 39.0723 28.4889 39.8756 27.7044 40.4117C27.1082 40.8183 26.4425 40.9391 25.7411 40.9391C18.9005 40.9381 12.059 40.9391 5.21838 40.9391C5.08118 40.9391 4.94302 40.944 4.80582 40.9322C3.61355 40.833 2.71017 40.3047 2.22708 39.1449C2.09567 38.8307 2.05606 38.4988 2.00002 38.1688C1.99326 38.1472 1.98746 38.1256 1.98166 38.104C2.09954 37.8928 2.04543 37.6464 2.04543 37.4175C2.05026 29.6644 2.0493 21.9113 2.0493 14.1582C2.0493 14.0178 2.0493 13.8784 2.0493 13.7379C2.05316 13.0918 2.07055 13.0711 2.69084 13.0702C4.02611 13.0682 5.36234 13.0702 6.69761 13.0702C6.9179 13.0702 7.13819 13.078 7.35654 13.1143C7.36234 13.1143 7.36814 13.1143 7.37394 13.1153C7.37394 13.4463 7.37394 13.7772 7.37394 14.1091C7.37394 14.501 7.37394 14.8928 7.37394 15.2846C7.37394 15.6205 7.37394 15.9563 7.37394 16.2922C7.372 16.5289 7.35268 16.7665 7.37104 17.0012C7.40679 17.4716 7.85606 17.8782 8.31596 17.8782C8.77587 17.8782 9.22514 17.4726 9.26282 17.0012C9.28118 16.7665 9.26186 16.5289 9.25896 16.2922C9.25896 15.9563 9.25896 15.6205 9.25896 15.2846C9.25896 14.8928 9.25896 14.501 9.25896 14.1091C9.25896 13.7782 9.25896 13.4463 9.25896 13.1153C9.26669 13.1153 9.27345 13.1143 9.28118 13.1134C9.52659 13.0692 9.77394 13.0682 10.0213 13.0682C13.8164 13.0682 17.6126 13.0682 21.4078 13.0682C21.6551 13.0682 21.9024 13.0702 22.1478 13.1134C22.1517 13.1134 22.1546 13.1134 22.1585 13.1134C22.1585 13.4168 22.1585 13.7203 22.1585 14.0237V15.0313C22.1585 15.4516 22.1585 15.8709 22.1585 16.2912C22.1565 16.5141 22.142 16.737 22.1536 16.959C22.1749 17.3783 22.3981 17.6533 22.7768 17.8045C23.1507 17.9538 23.4686 17.8526 23.7536 17.5816C24.1382 17.2163 24.0561 16.7469 24.0445 16.2912V15.0313C24.0445 14.6954 24.0445 14.3596 24.0445 14.0237C24.0445 13.7203 24.0445 13.4168 24.0445 13.1143C24.0512 13.1143 24.058 13.1143 24.0638 13.1134C24.3633 13.0564 24.6657 13.0672 24.9681 13.0672C26.0532 13.0672 27.1382 13.0662 28.2232 13.0672C28.8735 13.0672 28.8773 13.0741 28.8802 13.7517C28.8802 13.9049 28.8802 14.0591 28.8802 14.2123C28.8802 16.6271 28.8792 19.0419 28.8821 21.4576C28.8821 21.6914 28.8416 21.9359 28.9865 22.148C29.0126 22.1362 29.0348 22.1254 29.0551 22.1156C29.0464 22.1333 29.0387 22.15 29.0261 22.1667C29.0242 24.2387 29.0232 26.3118 29.0213 28.3839C28.9507 28.5636 28.9807 28.757 28.9807 28.9446C28.9778 31.8121 28.9788 34.6787 28.9788 37.5462C28.9788 37.7554 28.9942 37.9665 28.9266 38.1708L28.9276 38.1717Z" fill="white"/>
</g>
<defs>
<clipPath id="clip0_13_82">
<rect width="31" height="43" fill="white"/>
</clipPath>
</defs>
</svg>
