<svg width="46" height="46" viewBox="0 0 46 46" fill="none" xmlns="http://www.w3.org/2000/svg">
<path d="M15.8512 21.3178C14.2685 22.6527 14.2205 25.3255 15.7552 26.7145C16.9377 27.7848 18.5924 27.7442 19.7119 26.6093C20.4074 25.9042 20.7041 25.0354 20.7251 24.0597L20.809 24.0342C20.6651 23.5065 20.5887 22.9488 20.3669 22.4557C19.5321 20.5992 17.3394 20.0625 15.8512 21.3178Z" fill="url(#paint0_linear_19_477)"/>
<path d="M26.9898 21.4305C25.5435 22.7924 25.5376 25.3059 26.9779 26.6739C28.1469 27.7833 29.857 27.7592 30.984 26.6092C31.6779 25.9027 31.9762 25.0338 32.0391 24.0432C31.9522 23.6237 31.9087 23.1893 31.7724 22.7879C31.0455 20.6398 28.568 19.9452 26.9883 21.432L26.9898 21.4305Z" fill="url(#paint1_linear_19_477)"/>
<path d="M23.2984 0C10.7614 0 0.596863 10.1952 0.596863 22.77C0.596863 35.3448 10.7614 45.54 23.2984 45.54C35.8355 45.54 46 35.3448 46 22.77C46 10.1952 35.8355 0 23.2984 0ZM39.9301 31.5235C37.4361 33.353 34.7189 34.742 31.7679 35.6726C31.5491 35.7417 31.4471 35.6831 31.3407 35.5102C30.9391 34.8623 30.5239 34.2234 30.1238 33.5755C29.9694 33.3244 29.842 33.0569 29.7041 32.7998C30.6648 32.3368 31.591 31.8888 32.5292 31.4363C32.1246 30.8606 31.9193 30.7944 31.4007 31.0199C27.6463 32.654 23.7571 33.1456 19.7224 32.409C18.1113 32.1143 16.5586 31.6273 15.0583 30.9673C14.9279 30.9102 14.7406 30.8441 14.6357 30.8952C14.4273 30.9959 14.2565 31.1763 13.9807 31.3958C14.9969 31.8888 15.9291 32.3398 16.9362 32.8284C16.3382 33.7694 15.7582 34.6804 15.1842 35.5944C15.0643 35.7838 14.9264 35.7026 14.781 35.6575C11.8675 34.7285 9.17422 33.3635 6.71027 31.5506C6.59187 31.4634 6.50494 31.277 6.48096 31.1237C6.41501 30.6892 6.38953 30.2488 6.34757 29.8113V27.0212C6.36705 26.8814 6.38954 26.7416 6.40602 26.6003C6.52592 25.5571 6.59636 24.5048 6.77321 23.472C7.47762 19.3666 9.09628 15.6295 11.3879 12.172C11.4673 12.0517 11.5962 11.942 11.7266 11.8818C13.8218 10.9212 16.01 10.2583 18.2731 9.83438C18.456 9.7998 18.5594 9.8419 18.6403 10.0118C18.8502 10.4507 19.0944 10.8731 19.2803 11.3211C19.3867 11.5782 19.5171 11.6218 19.7764 11.5962C20.785 11.497 21.7982 11.3542 22.8068 11.3632C24.1602 11.3752 25.5121 11.506 26.864 11.6007C27.0918 11.6173 27.2132 11.5797 27.3106 11.3497C27.5039 10.8927 27.7452 10.4567 27.9566 10.0073C28.0375 9.83588 28.1439 9.80281 28.3268 9.83588C30.5584 10.2463 32.7136 10.9062 34.7819 11.8427C34.9602 11.9239 35.1356 12.0712 35.245 12.2321C39.0833 17.9716 40.7604 24.2733 40.1189 31.1718C40.1069 31.295 40.029 31.4499 39.9316 31.522L39.9301 31.5235Z" fill="url(#paint2_linear_19_477)"/>
<defs>
<linearGradient id="paint0_linear_19_477" x1="17.7213" y1="20.6365" x2="17.7213" y2="27.4898" gradientUnits="userSpaceOnUse">
<stop stop-color="#297DCB"/>
<stop offset="1" stop-color="#87FD50"/>
</linearGradient>
<linearGradient id="paint1_linear_19_477" x1="28.9703" y1="20.6404" x2="28.9703" y2="27.4892" gradientUnits="userSpaceOnUse">
<stop stop-color="#297DCB"/>
<stop offset="1" stop-color="#87FD50"/>
</linearGradient>
<linearGradient id="paint2_linear_19_477" x1="23.2984" y1="0" x2="23.2984" y2="45.54" gradientUnits="userSpaceOnUse">
<stop stop-color="#297DCB"/>
<stop offset="1" stop-color="#87FD50"/>
</linearGradient>
</defs>
</svg>
