<svg width="41" height="42" viewBox="0 0 41 42" fill="none" xmlns="http://www.w3.org/2000/svg">
<rect x="2" y="2" width="37" height="38" rx="4" stroke="white" stroke-width="2.5"/>
<path d="M22.5 11C22.5 10.1716 21.8284 9.5 21 9.5C20.1716 9.5 19.5 10.1716 19.5 11L22.5 11ZM19.9393 32.0607C20.5251 32.6464 21.4749 32.6464 22.0607 32.0607L31.6066 22.5147C32.1924 21.9289 32.1924 20.9792 31.6066 20.3934C31.0208 19.8076 30.0711 19.8076 29.4853 20.3934L21 28.8787L12.5147 20.3934C11.9289 19.8076 10.9792 19.8076 10.3934 20.3934C9.80761 20.9792 9.80761 21.9289 10.3934 22.5147L19.9393 32.0607ZM19.5 11L19.5 31L22.5 31L22.5 11L19.5 11Z" fill="white"/>
</svg>
