<svg width="46" height="46" viewBox="0 0 46 46" fill="none" xmlns="http://www.w3.org/2000/svg">
<path d="M45.8622 23.191C45.8682 35.7328 35.6752 45.9625 23.1711 45.967C10.5921 45.9701 0.454523 35.7974 0.45752 23.1715C0.460518 10.6102 10.631 0.418025 23.1546 0.425541C35.6632 0.433058 45.8562 10.6523 45.8622 23.191ZM29.6817 26.0878C29.9904 24.1095 30.2857 22.2199 30.5959 20.2431H25.109C25.109 18.6707 25.0865 17.2441 25.118 15.8175C25.1359 14.9501 25.5601 14.2316 26.3394 13.8873C26.9824 13.6032 27.7108 13.4604 28.4167 13.3822C29.1736 13.298 29.9484 13.3627 30.8087 13.3627C30.8087 11.9 30.7862 10.5305 30.8207 9.16103C30.8342 8.61685 30.6244 8.49057 30.1253 8.48155C28.8274 8.456 27.5295 8.39888 26.2345 8.31469C22.705 8.08469 20.1181 9.88711 19.2309 13.3236C18.9836 14.2797 18.9341 15.2989 18.8907 16.2925C18.8352 17.5838 18.8772 18.8797 18.8772 20.2642H13.7125V26.1149H18.9176V40.3463H25.1195V26.0878H29.6847H29.6817Z" fill="url(#paint0_linear_19_471)"/>
<defs>
<linearGradient id="paint0_linear_19_471" x1="23.1598" y1="0.425537" x2="23.1598" y2="45.967" gradientUnits="userSpaceOnUse">
<stop stop-color="#297DCB"/>
<stop offset="1" stop-color="#87FD50"/>
</linearGradient>
</defs>
</svg>
