<svg width="46" height="46" viewBox="0 0 46 46" fill="none" xmlns="http://www.w3.org/2000/svg">
<path d="M45.9046 23.1623C45.9076 35.7897 35.7761 45.9638 23.1956 45.9653C10.6885 45.9668 0.511979 35.7566 0.505984 23.1983C0.499989 10.6566 10.672 0.447879 23.1971 0.42533C35.7101 0.402781 45.9001 10.6055 45.9031 23.1623H45.9046ZM23.2046 8.67376C21.0074 8.67376 18.8102 8.66775 16.6131 8.67376C12.1797 8.68729 8.71614 12.1493 8.71014 16.5779C8.70415 20.96 8.70715 25.3435 8.71014 29.7255C8.71164 34.2008 12.0539 37.6658 16.5246 37.7199C20.9939 37.774 25.4632 37.777 29.9325 37.7199C34.3253 37.6643 37.687 34.2654 37.7335 29.8533C37.7814 25.3961 37.7874 20.9374 37.7335 16.4802C37.6795 12.0576 34.2039 8.68429 29.7976 8.67226C27.6004 8.66625 25.4032 8.67226 23.2061 8.67226L23.2046 8.67376Z" fill="url(#paint0_linear_19_473)"/>
<path d="M35.1751 23.1894C35.1751 25.3436 35.1841 27.4978 35.1736 29.6535C35.1556 32.8449 32.8715 35.1539 29.6882 35.1659C25.3927 35.1825 21.0958 35.1825 16.8004 35.1659C13.5646 35.1539 11.2685 32.872 11.2505 29.6324C11.2265 25.3481 11.2265 21.0638 11.2505 16.781C11.2685 13.5294 13.5526 11.2399 16.7824 11.2264C21.0778 11.2069 25.3748 11.2054 29.6702 11.2264C32.9 11.2429 35.1631 13.552 35.1736 16.8005C35.1811 18.9307 35.1736 21.0593 35.1751 23.1894ZM23.2465 31.1282C27.5899 31.1282 31.2004 27.5218 31.1869 23.1984C31.1734 18.8826 27.5465 15.2642 23.2315 15.2627C18.8882 15.2612 15.3376 18.8359 15.3361 23.2135C15.3346 27.6015 18.8582 31.1282 23.2465 31.1282ZM30.9576 17.1087C31.8928 17.1267 32.6961 16.348 32.6947 15.425C32.6932 14.5366 31.9228 13.7609 31.028 13.7459C30.0673 13.7309 29.303 14.4765 29.306 15.428C29.309 16.3526 30.0344 17.0907 30.9576 17.1087Z" fill="url(#paint1_linear_19_473)"/>
<path d="M28.4022 23.2074C28.4022 26.0862 26.0732 28.4373 23.2211 28.4388C20.3689 28.4403 18.0294 26.0877 18.0294 23.2149C18.0294 20.3602 20.4034 18.0001 23.251 18.0226C26.0792 18.0437 28.4037 20.3828 28.4037 23.2074H28.4022Z" fill="url(#paint2_linear_19_473)"/>
<defs>
<linearGradient id="paint0_linear_19_473" x1="23.2053" y1="0.425293" x2="23.2053" y2="45.9653" gradientUnits="userSpaceOnUse">
<stop stop-color="#297DCB"/>
<stop offset="1" stop-color="#87FD50"/>
</linearGradient>
<linearGradient id="paint1_linear_19_473" x1="23.2056" y1="11.2112" x2="23.2056" y2="35.1784" gradientUnits="userSpaceOnUse">
<stop stop-color="#297DCB"/>
<stop offset="1" stop-color="#87FD50"/>
</linearGradient>
<linearGradient id="paint2_linear_19_473" x1="23.2166" y1="18.0225" x2="23.2166" y2="28.4388" gradientUnits="userSpaceOnUse">
<stop stop-color="#297DCB"/>
<stop offset="1" stop-color="#87FD50"/>
</linearGradient>
</defs>
</svg>
