<svg width="46" height="46" viewBox="0 0 46 46" fill="none" xmlns="http://www.w3.org/2000/svg">
<path d="M45.9545 23.2421C45.977 35.7643 35.778 45.988 23.2515 46C10.7234 46.0121 0.560396 35.8319 0.549904 23.2616C0.539413 10.6838 10.6605 0.49312 23.193 0.460048C35.7256 0.425473 45.9306 10.6417 45.953 23.2421H45.9545ZM9.70578 32.6691C10.0235 32.872 10.1719 32.9833 10.3352 33.0674C12.8247 34.3347 15.455 35.0142 18.2546 35.0653C27.8152 35.2382 35.2805 27.7774 35.0392 18.2633C35.0287 17.8438 35.1171 17.5868 35.5098 17.3628C36.4705 16.8141 37.1494 15.9918 37.7204 14.908C37.1329 15.0914 36.7103 15.2402 36.2786 15.3544C35.874 15.4612 35.4603 15.5303 35.0496 15.6145C35.9159 14.6825 36.7103 13.8031 37.0999 12.5448C36.1422 12.9672 35.2924 13.3265 34.4591 13.7174C33.9301 13.9654 33.5509 13.8917 33.0653 13.5024C31.06 11.8939 28.8223 11.6504 26.5412 12.7989C24.3261 13.9158 23.28 15.8114 23.3624 18.3129C23.3714 18.5774 23.3624 18.8405 23.3624 19.1667C18.3745 19.1096 14.7041 16.6006 11.4578 13.1266C9.9141 16.2549 10.7114 18.7518 13.2668 20.8579C13.2113 20.924 13.1559 20.9887 13.1004 21.0548C12.3031 20.8399 11.5073 20.6234 10.6635 20.3964C10.9108 23.1008 12.2566 24.9814 14.8855 25.9119L14.842 26.1178C14.1061 26.1524 13.3702 26.187 12.5729 26.2246C13.0315 27.3024 13.601 28.3006 14.5572 28.9169C15.488 29.5167 16.5506 29.9121 17.5847 30.4112C15.413 32.2993 12.6658 32.5353 9.70428 32.6721L9.70578 32.6691Z" fill="url(#paint0_linear_19_472)"/>
<defs>
<linearGradient id="paint0_linear_19_472" x1="23.2522" y1="0.459961" x2="23.2522" y2="46.0001" gradientUnits="userSpaceOnUse">
<stop stop-color="#297DCB"/>
<stop offset="1" stop-color="#87FD50"/>
</linearGradient>
</defs>
</svg>
