<svg width="46" height="35" viewBox="0 0 46 35" fill="none" xmlns="http://www.w3.org/2000/svg">
<g clip-path="url(#clip0_13_79)">
<path d="M44.1114 14.5894C43.9189 14.6088 43.7185 14.5689 43.5283 14.5974C43.1861 14.6488 43.1141 14.5152 43.1163 14.1797C43.1321 11.9026 43.1264 9.62433 43.1242 7.34723C43.1242 6.44552 42.5332 5.84857 41.6417 5.84742C40.3394 5.84514 39.0359 5.83715 37.7335 5.85427C37.4375 5.8577 37.3643 5.77552 37.3677 5.47989C37.3846 4.26544 37.3261 3.04756 37.3891 1.83653C37.4521 0.634634 36.7025 -0.0034105 35.6005 1.37105e-05C25.2841 0.0274074 14.9666 0.0159934 4.65015 0.0171348C4.48581 0.0171348 4.32034 0.0159934 4.156 0.0239832C1.81244 0.138124 0.00467517 2.0397 0.00354954 4.41154C0.000172648 13.0965 -0.000952982 21.7803 0.00354954 30.4652C0.00467517 33.1087 1.86422 34.9954 4.47005 34.9966C16.8227 35.0012 29.1765 34.9989 41.5292 34.9977C42.5659 34.9977 43.1242 34.4236 43.1253 33.361C43.1276 31.2962 43.1253 29.2314 43.1253 27.1666C43.1253 26.2523 43.1276 26.2146 44.0213 26.2637C44.9308 26.3128 45.6287 26.0617 46.0002 25.16V15.6852C45.6422 14.8383 45.0006 14.4993 44.1114 14.5894ZM4.17964 2.94598C4.34173 2.92543 4.50832 2.93228 4.67266 2.93228C14.4499 2.93228 24.2282 2.93456 34.0055 2.92201C34.4107 2.92201 34.5345 3.01788 34.5109 3.43336C34.4737 4.09879 34.4793 4.76994 34.5109 5.43652C34.5266 5.78122 34.4287 5.85541 34.0955 5.85541C29.1394 5.84286 24.1832 5.84742 19.2271 5.84742C14.2709 5.84742 9.43408 5.84742 4.53871 5.84742C3.75302 5.84742 3.21497 5.52327 2.98422 4.92403C2.63865 4.02803 3.21722 3.06925 4.18076 2.94712L4.17964 2.94598ZM40.2595 31.6934C40.2628 32.0164 40.175 32.0917 39.8632 32.0917C28.0655 32.0837 16.2678 32.0849 4.47118 32.0837C3.46036 32.0837 2.88066 31.4982 2.87953 30.4755C2.87728 23.2493 2.87841 16.023 2.87841 8.79681V8.50575C3.67423 8.77512 4.45091 8.76485 5.22872 8.76485C16.727 8.76257 28.2253 8.76485 39.7225 8.75344C40.1424 8.75344 40.273 8.83334 40.264 9.28647C40.2324 10.9255 40.2426 12.5657 40.2595 14.2048C40.2628 14.5301 40.1705 14.6043 39.861 14.602C38.0791 14.5872 36.2972 14.5803 34.5165 14.5986C31.1914 14.6328 28.6452 17.3299 28.76 20.6731C28.8625 23.6556 31.2994 26.1587 34.243 26.2386C36.098 26.2888 37.9553 26.2614 39.8115 26.2477C40.1458 26.2454 40.2673 26.3094 40.2617 26.6849C40.2392 28.3548 40.2426 30.0246 40.2595 31.6945V31.6934ZM42.7539 23.3383C41.3637 23.3383 39.9724 23.3383 38.5823 23.3383V23.336C37.2214 23.336 35.8605 23.3611 34.5007 23.3303C32.4611 23.2846 31.152 21.3614 31.8116 19.4199C32.1729 18.3549 33.1939 17.5411 34.369 17.5263C37.1944 17.4909 40.0208 17.5126 42.8473 17.5046C43.0578 17.5046 43.1321 17.5662 43.1309 17.7865C43.1242 19.5454 43.1208 21.3043 43.1332 23.0632C43.1354 23.3874 42.9463 23.3394 42.755 23.3394L42.7539 23.3383Z" fill="white"/>
</g>
<defs>
<clipPath id="clip0_13_79">
<rect width="46" height="35" fill="white"/>
</clipPath>
</defs>
</svg>
